<svg version="1.2" xmlns="http://www.w3.org/2000/svg" viewBox="0 0 190 80" width="50" height="26">
	<style>
		.s0 { fill: none;stroke: #000000;stroke-linecap: round;stroke-width: 2 } 
	</style>
	<g id="svgGroup">
		<path fill-rule="evenodd" class="s0" d="m117.84 12.87q-2.09 3.07-4.68 7.37-2.59 4.3-5.52 9.62-2.49 4.44-4.91 9.45-2.42 5-4.61 9.91-2.2 4.91-4.06 9.42-1.85 4.52-3.22 7.96-1.36 3.44-2.15 5.52-0.78 2.07-0.78 2.12-0.49 1.22-1.76 1.22-0.63 0-1.12-0.41-0.49-0.42-0.63-1.05 0-0.05-0.47-2.08-0.46-2.02-1.24-5.42-0.78-3.39-1.78-7.81-1.01-4.42-2.1-9.23-1.1-4.81-2.23-9.74-1.12-4.93-2.1-9.37-3.27 9.22-6.56 16.33-3.3 7.1-6.77 12.35-3.46 5.25-7.15 8.82-3.69 3.56-7.71 5.73-4.03 2.18-8.45 3.1-4.42 0.93-9.35 0.93-2.54 0-5.42-0.56-2.88-0.56-5.71-1.73-2.84-1.18-5.42-2.93-2.59-1.76-4.59-4.18-2.01-2.41-3.18-5.47-1.17-3.05-1.17-6.81 0-3.95 1.66-7.25 1.66-3.29 4.49-5.66 2.83-2.37 6.57-3.69 3.73-1.32 7.89-1.32 3.02 0 5.44 0.52 2.42 0.51 4.27 1.29 1.86 0.78 3.18 1.71 1.31 0.93 2.19 1.71 0.88 0.78 1.27 1.34 0.39 0.56 0.44 0.56 0.3 0.54 0.3 1.03 0 0.68-0.52 1.27-0.51 0.58-1.34 0.58-0.98 0-1.56-0.83-0.05-0.05-0.78-0.9-0.74-0.86-2.4-1.88-1.66-1.03-4.27-1.86-2.61-0.83-6.37-0.83-3.42 0-6.47 1.05-3.05 1.05-5.32 2.96-2.27 1.9-3.62 4.51-1.34 2.62-1.34 5.74 0 3.08 1.03 5.62 1.02 2.53 2.73 4.54 1.71 2 3.96 3.46 2.24 1.47 4.68 2.42 2.44 0.95 4.91 1.42 2.47 0.46 4.66 0.46 3.71 0 7.25-0.56 3.55-0.56 6.99-2.12 3.44-1.57 6.76-4.3 3.32-2.74 6.59-7.13 3.27-4.39 6.47-10.6 3.2-6.2 6.42-14.64 0.98-2.54 1.91-5.47 0.92-2.93 1.9-5.91-0.83-4.3-1.19-7.33-0.37-3.02-0.37-5.02 0-2.15 0.34-3.42 0.34-1.27 0.88-1.93 0.54-0.66 1.17-0.83 0.64-0.17 1.22-0.17 0.49 0 1.1 0.19 0.61 0.2 1.12 0.86 0.52 0.66 0.86 1.93 0.34 1.27 0.34 3.41 0 2.35-0.44 5.42-0.44 3.08-1.32 6.79 0.64 2.98 1.47 6.64 0.83 3.66 1.71 7.59 0.87 3.93 1.8 8.04 0.93 4.1 1.81 8 0.88 3.91 1.68 7.48 0.81 3.56 1.49 6.44 1.32-3.32 3.23-8.03 1.9-4.71 4.24-10.01 2.35-5.3 4.96-10.79 2.61-5.5 5.35-10.38 3.85-6.93 7.08-11.89 3.22-4.96 5.56-8.18 2.35-3.22 3.69-4.76 1.34-1.54 1.44-1.68 0.54-0.54 1.32-0.54 0.83 0 1.34 0.56 0.51 0.56 0.51 1.3 0 0.34-0.14 0.68 0 0.05-0.56 1.44-0.57 1.39-1.42 3.81-0.86 2.42-1.88 5.66-1.03 3.25-2 6.99-0.98 3.73-1.74 7.81-0.75 4.07-1.09 8.13-0.15 1.85-0.25 3.88-0.1 2.02-0.1 4.08 0 3.22 0.3 6.49 0.29 3.27 0.97 6.3 0.69 3.03 1.86 5.69 1.17 2.66 2.88 4.66 1.71 2 4.08 3.22 2.37 1.22 5.49 1.32 0.78 0.05 1.24 0.66 0.47 0.61 0.47 1.29 0 0.69-0.54 1.22-0.53 0.54-1.27 0.54-0.78 0-1.56-0.14-3.52-0.49-6.2-2.03-2.69-1.54-4.64-3.81-1.95-2.27-3.25-5.17-1.29-2.91-2.07-6.23-0.78-3.32-1.1-6.91-0.32-3.59-0.32-7.25 0-4.35 0.44-8.69 0.44-4.35 1.17-8.47 0.74-4.13 1.71-7.99 0.98-3.85 2-7.17zm24.32 57.52q1.03 1.41 2.64 2.26 1.61 0.86 3.95 0.86 2.4 0 4.35-1.15 1.95-1.14 3.56-3 1.61-1.86 2.88-4.15 1.27-2.3 2.3-4.59 0.02-0.05 0.04-0.09 0.02-0.05 0.05-0.09 0.02-0.04 0.05-0.08 0.03-0.05 0.05-0.09 0.06-1.03 0.13-2.06 0.07-1.04 0.16-2.07 0.1-1.03 0.21-2.06 0.11-1.03 0.24-2.05 0.09-0.69 0.61-1.2 0.51-0.51 1.34-0.51 0.73 0 1.22 0.56 0.49 0.56 0.49 1.29 0 0.3-0.12 1.76-0.13 1.46-0.3 3.49-0.17 2.03-0.29 4.3-0.12 2.27-0.12 4.17 0 2.59 0.51 4.18 0.51 1.58 1.32 2.46 0.81 0.88 1.71 1.17 0.9 0.3 1.73 0.3 1.37 0 2.83-0.98 1.47-0.98 3.01-2.73 1.53-1.76 3.1-4.23 1.56-2.46 3.07-5.49 0.25-0.49 0.69-0.76 0.44-0.27 0.97-0.27 0.78 0 1.3 0.59 0.51 0.59 0.51 1.27 0 0.49-0.2 0.83-0.58 1.12-1.46 2.74-0.88 1.61-2 3.31-1.13 1.71-2.47 3.4-1.34 1.68-2.85 3.03-1.52 1.34-3.18 2.17-1.66 0.83-3.37 0.83-2.2 0-3.86-0.93-1.65-0.93-2.8-2.49-1.15-1.56-1.71-3.68-0.08-0.31-0.15-0.62-0.07-0.3-0.12-0.61-0.06-0.31-0.1-0.62-0.05-0.31-0.08-0.62-0.23 0.35-0.46 0.69-0.23 0.35-0.47 0.69-0.24 0.34-0.48 0.67-0.25 0.34-0.51 0.66-0.26 0.34-0.53 0.66-0.27 0.33-0.56 0.64-0.28 0.31-0.58 0.62-0.29 0.3-0.6 0.59-3.98 3.76-9.01 3.86-3.22 0-5.56-1.24-2.35-1.25-3.86-3.23-1.52-1.97-2.25-4.47-0.73-2.48-0.73-4.98 0-2.49 0.61-4.58 0.61-2.1 1.76-3.67 1.14-1.56 2.73-2.44 1.59-0.88 3.49-0.88 1.13 0 2.22 0.47 1.1 0.46 1.98 1.31 0.88 0.86 1.42 2.08 0.54 1.22 0.54 2.78 0 2-0.69 3.76-0.68 1.76-1.88 3.27-1.2 1.52-2.86 2.79-1.66 1.27-3.56 2.2zm-1.46-3.18q1.51-0.63 2.75-1.61 1.25-0.98 2.13-2.15 0.88-1.17 1.37-2.47 0.48-1.29 0.48-2.61 0-1.46-0.73-2.22-0.73-0.75-1.71-0.75-1.32-0.01-2.24 0.73-0.93 0.73-1.52 1.9-0.58 1.17-0.85 2.61-0.27 1.44-0.27 2.86 0 0.88 0.17 1.86 0.17 0.97 0.42 1.85zm29.1-29.78q0 1.85-1.3 3.15-1.29 1.29-3.15 1.29-1.85 0-3.15-1.29-1.29-1.3-1.29-3.15 0-0.93 0.34-1.74 0.34-0.8 0.95-1.41 0.61-0.61 1.42-0.96 0.81-0.34 1.73-0.34 0.93 0 1.74 0.34 0.8 0.35 1.41 0.96 0.61 0.61 0.96 1.41 0.34 0.81 0.34 1.74zm-2.74 0q0-0.69-0.51-1.2-0.51-0.51-1.2-0.51-0.68 0-1.17 0.51-0.49 0.51-0.49 1.2 0 0.68 0.49 1.17 0.49 0.49 1.17 0.49 0.69 0 1.2-0.49 0.51-0.49 0.51-1.17z"/>
	</g>
</svg>